<?xml version="1.0"?>
<svg xmlns="http://www.w3.org/2000/svg" xmlns:xlink="http://www.w3.org/1999/xlink" version="1.1" width="320px" height="320px" viewBox="0 0 320 320"><rect x="0" y="0" width="320" height="320" fill="#ffffff" fill-opacity="1"/><path fill="#1f294c" fill-opacity="1" d="M15,15L85,15L85,25L15,25ZM115,15L125,15L125,25L115,25ZM205,15L215,15L215,25L205,25ZM235,15L305,15L305,25L235,25ZM15,25L25,25L25,35L15,35ZM75,25L85,25L85,35L75,35ZM95,25L125,25L125,35L95,35ZM145,25L175,25L175,35L145,35ZM195,25L215,25L215,35L195,35ZM235,25L245,25L245,35L235,35ZM295,25L305,25L305,35L295,35ZM15,35L25,35L25,45L15,45ZM35,35L65,35L65,45L35,45ZM75,35L85,35L85,45L75,45ZM95,35L105,35L105,45L95,45ZM155,35L165,35L165,45L155,45ZM195,35L225,35L225,45L195,45ZM235,35L245,35L245,45L235,45ZM255,35L285,35L285,45L255,45ZM295,35L305,35L305,45L295,45ZM15,45L25,45L25,55L15,55ZM35,45L65,45L65,55L35,55ZM75,45L85,45L85,55L75,55ZM105,45L115,45L115,55L105,55ZM135,45L145,45L145,55L135,55ZM165,45L175,45L175,55L165,55ZM205,45L225,45L225,55L205,55ZM235,45L245,45L245,55L235,55ZM255,45L285,45L285,55L255,55ZM295,45L305,45L305,55L295,55ZM15,55L25,55L25,65L15,65ZM35,55L65,55L65,65L35,65ZM75,55L85,55L85,65L75,65ZM95,55L125,55L125,65L95,65ZM135,55L155,55L155,65L135,65ZM165,55L175,55L175,65L165,65ZM235,55L245,55L245,65L235,65ZM255,55L285,55L285,65L255,65ZM295,55L305,55L305,65L295,65ZM15,65L25,65L25,75L15,75ZM75,65L85,65L85,75L75,75ZM95,65L105,65L105,75L95,75ZM115,65L125,65L125,75L115,75ZM135,65L145,65L145,75L135,75ZM185,65L205,65L205,75L185,75ZM215,65L225,65L225,75L215,75ZM235,65L245,65L245,75L235,75ZM295,65L305,65L305,75L295,75ZM15,75L85,75L85,85L15,85ZM95,75L105,75L105,85L95,85ZM115,75L125,75L125,85L115,85ZM135,75L145,75L145,85L135,85ZM155,75L165,75L165,85L155,85ZM175,75L185,75L185,85L175,85ZM195,75L205,75L205,85L195,85ZM215,75L225,75L225,85L215,85ZM235,75L305,75L305,85L235,85ZM95,85L105,85L105,95L95,95ZM115,85L135,85L135,95L115,95ZM165,85L185,85L185,95L165,95ZM205,85L225,85L225,95L205,95ZM15,95L35,95L35,105L15,105ZM45,95L55,95L55,105L45,105ZM75,95L95,95L95,105L75,105ZM125,95L145,95L145,105L125,105ZM155,95L165,95L165,105L155,105ZM185,95L205,95L205,105L185,105ZM235,95L265,95L265,105L235,105ZM275,95L295,95L295,105L275,105ZM65,105L75,105L75,115L65,115ZM85,105L95,105L95,115L85,115ZM105,105L115,105L115,115L105,115ZM125,105L175,105L175,115L125,115ZM185,105L205,105L205,115L185,115ZM225,105L255,105L255,115L225,115ZM285,105L305,105L305,115L285,115ZM35,115L45,115L45,125L35,125ZM55,115L65,115L65,125L55,125ZM75,115L85,115L85,125L75,125ZM95,115L105,115L105,125L95,125ZM125,115L145,115L145,125L125,125ZM175,115L195,115L195,125L175,125ZM205,115L235,115L235,125L205,125ZM245,115L255,115L255,125L245,125ZM265,115L275,115L275,125L265,125ZM15,125L25,125L25,135L15,135ZM35,125L45,125L45,135L35,135ZM95,125L155,125L155,135L95,135ZM185,125L195,125L195,135L185,135ZM205,125L215,125L215,135L205,135ZM235,125L255,125L255,135L235,135ZM265,125L275,125L275,135L265,135ZM295,125L305,125L305,135L295,135ZM15,135L45,135L45,145L15,145ZM65,135L85,135L85,145L65,145ZM95,135L105,135L105,145L95,145ZM115,135L165,135L165,145L115,145ZM185,135L195,135L195,145L185,145ZM215,135L305,135L305,145L215,145ZM25,145L55,145L55,155L25,155ZM85,145L95,145L95,155L85,155ZM125,145L135,145L135,155L125,155ZM165,145L175,145L175,155L165,155ZM185,145L195,145L195,155L185,155ZM205,145L215,145L215,155L205,155ZM225,145L235,145L235,155L225,155ZM265,145L275,145L275,155L265,155ZM285,145L305,145L305,155L285,155ZM45,155L55,155L55,165L45,165ZM65,155L85,155L85,165L65,165ZM105,155L115,155L115,165L105,165ZM125,155L155,155L155,165L125,165ZM205,155L215,155L215,165L205,165ZM225,155L255,155L255,165L225,165ZM265,155L305,155L305,165L265,165ZM35,165L65,165L65,175L35,175ZM95,165L105,165L105,175L95,175ZM115,165L135,165L135,175L115,175ZM145,165L155,165L155,175L145,175ZM185,165L195,165L195,175L185,175ZM205,165L215,165L215,175L205,175ZM225,165L245,165L245,175L225,175ZM265,165L275,165L275,175L265,175ZM15,175L35,175L35,185L15,185ZM55,175L85,175L85,185L55,185ZM105,175L115,175L115,185L105,185ZM135,175L165,175L165,185L135,185ZM175,175L195,175L195,185L175,185ZM205,175L225,175L225,185L205,185ZM245,175L255,175L255,185L245,185ZM265,175L295,175L295,185L265,185ZM25,185L35,185L35,195L25,195ZM55,185L75,185L75,195L55,195ZM85,185L105,185L105,195L85,195ZM115,185L135,185L135,195L115,195ZM145,185L175,185L175,195L145,195ZM195,185L205,185L205,195L195,195ZM275,185L285,185L285,195L275,195ZM15,195L25,195L25,205L15,205ZM55,195L95,195L95,205L55,205ZM115,195L125,195L125,205L115,205ZM185,195L255,195L255,205L185,205ZM265,195L295,195L295,205L265,205ZM45,205L65,205L65,215L45,215ZM85,205L125,205L125,215L85,215ZM145,205L155,205L155,215L145,215ZM175,205L195,205L195,215L175,215ZM205,205L225,205L225,215L205,215ZM275,205L295,205L295,215L275,215ZM15,215L25,215L25,225L15,225ZM35,215L45,215L45,225L35,225ZM55,215L65,215L65,225L55,225ZM75,215L95,215L95,225L75,225ZM125,215L145,215L145,225L125,225ZM175,215L205,215L205,225L175,225ZM215,215L265,215L265,225L215,225ZM295,215L305,215L305,225L295,225ZM95,225L175,225L175,235L95,235ZM185,225L195,225L195,235L185,235ZM215,225L225,225L225,235L215,235ZM255,225L275,225L275,235L255,235ZM285,225L295,225L295,235L285,235ZM15,235L85,235L85,245L15,245ZM95,235L105,235L105,245L95,245ZM145,235L155,235L155,245L145,245ZM215,235L225,235L225,245L215,245ZM235,235L245,235L245,245L235,245ZM255,235L275,235L275,245L255,245ZM285,235L295,235L295,245L285,245ZM15,245L25,245L25,255L15,255ZM75,245L85,245L85,255L75,255ZM105,245L135,245L135,255L105,255ZM145,245L165,245L165,255L145,255ZM185,245L195,245L195,255L185,255ZM215,245L225,245L225,255L215,255ZM255,245L305,245L305,255L255,255ZM15,255L25,255L25,265L15,265ZM35,255L65,255L65,265L35,265ZM75,255L85,255L85,265L75,265ZM105,255L125,255L125,265L105,265ZM135,255L145,255L145,265L135,265ZM175,255L185,255L185,265L175,265ZM195,255L265,255L265,265L195,265ZM275,255L285,255L285,265L275,265ZM15,265L25,265L25,275L15,275ZM35,265L65,265L65,275L35,275ZM75,265L85,265L85,275L75,275ZM95,265L135,265L135,275L95,275ZM175,265L205,265L205,275L175,275ZM215,265L225,265L225,275L215,275ZM235,265L245,265L245,275L235,275ZM265,265L275,265L275,275L265,275ZM295,265L305,265L305,275L295,275ZM15,275L25,275L25,285L15,285ZM35,275L65,275L65,285L35,285ZM75,275L85,275L85,285L75,285ZM105,275L115,275L115,285L105,285ZM125,275L155,275L155,285L125,285ZM165,275L175,275L175,285L165,285ZM185,275L195,275L195,285L185,285ZM205,275L215,275L215,285L205,285ZM235,275L245,275L245,285L235,285ZM255,275L275,275L275,285L255,285ZM295,275L305,275L305,285L295,285ZM15,285L25,285L25,295L15,295ZM75,285L85,285L85,295L75,295ZM95,285L125,285L125,295L95,295ZM155,285L165,285L165,295L155,295ZM185,285L195,285L195,295L185,295ZM245,285L275,285L275,295L245,295ZM295,285L305,285L305,295L295,295ZM15,295L85,295L85,305L15,305ZM95,295L125,295L125,305L95,305ZM135,295L145,295L145,305L135,305ZM155,295L165,295L165,305L155,305ZM205,295L215,295L215,305L205,305ZM235,295L275,295L275,305L235,305ZM285,295L295,295L295,305L285,305Z"/></svg>
