<?xml version="1.0"?>
<svg xmlns="http://www.w3.org/2000/svg" xmlns:xlink="http://www.w3.org/1999/xlink" version="1.1" width="320px" height="320px" viewBox="0 0 320 320"><rect x="0" y="0" width="320" height="320" fill="#ffffff" fill-opacity="1"/><path fill="#1f294c" fill-opacity="1" d="M15,15L85,15L85,25L15,25ZM105,15L115,15L115,25L105,25ZM155,15L185,15L185,25L155,25ZM205,15L225,15L225,25L205,25ZM235,15L305,15L305,25L235,25ZM15,25L25,25L25,35L15,35ZM75,25L85,25L85,35L75,35ZM95,25L115,25L115,35L95,35ZM125,25L175,25L175,35L125,35ZM185,25L195,25L195,35L185,35ZM205,25L215,25L215,35L205,35ZM235,25L245,25L245,35L235,35ZM295,25L305,25L305,35L295,35ZM15,35L25,35L25,45L15,45ZM35,35L65,35L65,45L35,45ZM75,35L85,35L85,45L75,45ZM105,35L135,35L135,45L105,45ZM155,35L165,35L165,45L155,45ZM175,35L225,35L225,45L175,45ZM235,35L245,35L245,45L235,45ZM255,35L285,35L285,45L255,45ZM295,35L305,35L305,45L295,45ZM15,45L25,45L25,55L15,55ZM35,45L65,45L65,55L35,55ZM75,45L85,45L85,55L75,55ZM95,45L115,45L115,55L95,55ZM125,45L135,45L135,55L125,55ZM145,45L155,45L155,55L145,55ZM165,45L205,45L205,55L165,55ZM215,45L225,45L225,55L215,55ZM235,45L245,45L245,55L235,55ZM255,45L285,45L285,55L255,55ZM295,45L305,45L305,55L295,55ZM15,55L25,55L25,65L15,65ZM35,55L65,55L65,65L35,65ZM75,55L85,55L85,65L75,65ZM115,55L125,55L125,65L115,65ZM135,55L145,55L145,65L135,65ZM205,55L225,55L225,65L205,65ZM235,55L245,55L245,65L235,65ZM255,55L285,55L285,65L255,65ZM295,55L305,55L305,65L295,65ZM15,65L25,65L25,75L15,75ZM75,65L85,65L85,75L75,75ZM95,65L105,65L105,75L95,75ZM115,65L125,65L125,75L115,75ZM145,65L155,65L155,75L145,75ZM165,65L195,65L195,75L165,75ZM205,65L215,65L215,75L205,75ZM235,65L245,65L245,75L235,75ZM295,65L305,65L305,75L295,75ZM15,75L85,75L85,85L15,85ZM95,75L105,75L105,85L95,85ZM115,75L125,75L125,85L115,85ZM135,75L145,75L145,85L135,85ZM155,75L165,75L165,85L155,85ZM175,75L185,75L185,85L175,85ZM195,75L205,75L205,85L195,85ZM215,75L225,75L225,85L215,85ZM235,75L305,75L305,85L235,85ZM135,85L145,85L145,95L135,95ZM175,85L225,85L225,95L175,95ZM15,95L65,95L65,105L15,105ZM75,95L125,95L125,105L75,105ZM135,95L145,95L145,105L135,105ZM165,95L185,95L185,105L165,105ZM195,95L205,95L205,105L195,105ZM225,95L235,95L235,105L225,105ZM245,95L255,95L255,105L245,105ZM265,95L275,95L275,105L265,105ZM285,95L295,95L295,105L285,105ZM15,105L25,105L25,115L15,115ZM35,105L55,105L55,115L35,115ZM65,105L75,105L75,115L65,115ZM85,105L115,105L115,115L85,115ZM165,105L185,105L185,115L165,115ZM205,105L215,105L215,115L205,115ZM225,105L245,105L245,115L225,115ZM255,105L275,105L275,115L255,115ZM285,105L305,105L305,115L285,115ZM15,115L25,115L25,125L15,125ZM65,115L85,115L85,125L65,125ZM95,115L115,115L115,125L95,125ZM125,115L145,115L145,125L125,125ZM155,115L195,115L195,125L155,125ZM245,115L255,115L255,125L245,125ZM275,115L295,115L295,125L275,125ZM25,125L55,125L55,135L25,135ZM65,125L75,125L75,135L65,135ZM95,125L135,125L135,135L95,135ZM145,125L155,125L155,135L145,135ZM165,125L205,125L205,135L165,135ZM215,125L225,125L225,135L215,135ZM235,125L265,125L265,135L235,135ZM275,125L285,125L285,135L275,135ZM295,125L305,125L305,135L295,135ZM25,135L45,135L45,145L25,145ZM55,135L65,135L65,145L55,145ZM75,135L85,135L85,145L75,145ZM95,135L115,135L115,145L95,145ZM125,135L135,135L135,145L125,145ZM165,135L175,135L175,145L165,145ZM185,135L195,135L195,145L185,145ZM245,135L275,135L275,145L245,145ZM15,145L45,145L45,155L15,155ZM65,145L75,145L75,155L65,155ZM85,145L95,145L95,155L85,155ZM105,145L125,145L125,155L105,155ZM135,145L145,145L145,155L135,155ZM155,145L165,145L165,155L155,155ZM195,145L215,145L215,155L195,155ZM225,145L275,145L275,155L225,155ZM285,145L295,145L295,155L285,155ZM25,155L65,155L65,165L25,165ZM75,155L85,155L85,165L75,165ZM115,155L125,155L125,165L115,165ZM155,155L165,155L165,165L155,165ZM185,155L195,155L195,165L185,165ZM205,155L215,155L215,165L205,165ZM265,155L285,155L285,165L265,165ZM25,165L45,165L45,175L25,175ZM55,165L65,165L65,175L55,175ZM85,165L105,165L105,175L85,175ZM135,165L145,165L145,175L135,175ZM165,165L175,165L175,175L165,175ZM195,165L205,165L205,175L195,175ZM225,165L265,165L265,175L225,175ZM15,175L65,175L65,185L15,185ZM75,175L95,175L95,185L75,185ZM105,175L115,175L115,185L105,185ZM135,175L145,175L145,185L135,185ZM155,175L195,175L195,185L155,185ZM225,175L235,175L235,185L225,185ZM245,175L255,175L255,185L245,185ZM15,185L25,185L25,195L15,195ZM35,185L45,185L45,195L35,195ZM65,185L75,185L75,195L65,195ZM115,185L125,185L125,195L115,195ZM205,185L225,185L225,195L205,195ZM255,185L275,185L275,195L255,195ZM295,185L305,185L305,195L295,195ZM15,195L25,195L25,205L15,205ZM65,195L105,195L105,205L65,205ZM115,195L155,195L155,205L115,205ZM165,195L215,195L215,205L165,205ZM245,195L255,195L255,205L245,205ZM265,195L275,195L275,205L265,205ZM285,195L305,195L305,205L285,205ZM15,205L25,205L25,215L15,215ZM55,205L65,205L65,215L55,215ZM95,205L105,205L105,215L95,215ZM115,205L135,205L135,215L115,215ZM145,205L165,205L165,215L145,215ZM195,205L225,205L225,215L195,215ZM235,205L265,205L265,215L235,215ZM275,205L305,205L305,215L275,215ZM15,215L25,215L25,225L15,225ZM35,215L45,215L45,225L35,225ZM75,215L85,215L85,225L75,225ZM105,215L115,215L115,225L105,225ZM125,215L155,215L155,225L125,225ZM165,215L175,215L175,225L165,225ZM195,215L205,215L205,225L195,225ZM215,215L265,215L265,225L215,225ZM285,215L295,215L295,225L285,225ZM95,225L105,225L105,235L95,235ZM115,225L125,225L125,235L115,235ZM135,225L145,225L145,235L135,235ZM165,225L175,225L175,235L165,235ZM195,225L225,225L225,235L195,235ZM255,225L265,225L265,235L255,235ZM285,225L295,225L295,235L285,235ZM15,235L85,235L85,245L15,245ZM95,235L125,235L125,245L95,245ZM135,235L155,235L155,245L135,245ZM165,235L175,235L175,245L165,245ZM205,235L225,235L225,245L205,245ZM235,235L245,235L245,245L235,245ZM255,235L265,235L265,245L255,245ZM275,235L285,235L285,245L275,245ZM15,245L25,245L25,255L15,255ZM75,245L85,245L85,255L75,255ZM115,245L125,245L125,255L115,255ZM135,245L145,245L145,255L135,255ZM185,245L225,245L225,255L185,255ZM255,245L265,245L265,255L255,255ZM285,245L305,245L305,255L285,255ZM15,255L25,255L25,265L15,265ZM35,255L65,255L65,265L35,265ZM75,255L85,255L85,265L75,265ZM95,255L105,255L105,265L95,265ZM165,255L175,255L175,265L165,265ZM195,255L265,255L265,265L195,265ZM285,255L305,255L305,265L285,265ZM15,265L25,265L25,275L15,275ZM35,265L65,265L65,275L35,275ZM75,265L85,265L85,275L75,275ZM95,265L105,265L105,275L95,275ZM125,265L145,265L145,275L125,275ZM215,265L225,265L225,275L215,275ZM245,265L275,265L275,275L245,275ZM15,275L25,275L25,285L15,285ZM35,275L65,275L65,285L35,285ZM75,275L85,275L85,285L75,285ZM95,275L125,275L125,285L95,285ZM145,275L155,275L155,285L145,285ZM175,275L185,275L185,285L175,285ZM205,275L215,275L215,285L205,285ZM225,275L235,275L235,285L225,285ZM245,275L275,275L275,285L245,285ZM285,275L295,275L295,285L285,285ZM15,285L25,285L25,295L15,295ZM75,285L85,285L85,295L75,295ZM95,285L145,285L145,295L95,295ZM155,285L165,285L165,295L155,295ZM195,285L215,285L215,295L195,295ZM295,285L305,285L305,295L295,295ZM15,295L85,295L85,305L15,305ZM95,295L105,295L105,305L95,305ZM135,295L145,295L145,305L135,305ZM155,295L175,295L175,305L155,305ZM215,295L265,295L265,305L215,305ZM275,295L285,295L285,305L275,305Z"/></svg>
