<?xml version="1.0"?>
<svg xmlns="http://www.w3.org/2000/svg" xmlns:xlink="http://www.w3.org/1999/xlink" version="1.1" width="320px" height="320px" viewBox="0 0 320 320"><rect x="0" y="0" width="320" height="320" fill="#ffffff" fill-opacity="1"/><path fill="#1f294c" fill-opacity="1" d="M15,15L85,15L85,25L15,25ZM95,15L105,15L105,25L95,25ZM145,15L155,15L155,25L145,25ZM175,15L185,15L185,25L175,25ZM235,15L305,15L305,25L235,25ZM15,25L25,25L25,35L15,35ZM75,25L85,25L85,35L75,35ZM95,25L105,25L105,35L95,35ZM125,25L145,25L145,35L125,35ZM175,25L195,25L195,35L175,35ZM215,25L225,25L225,35L215,35ZM235,25L245,25L245,35L235,35ZM295,25L305,25L305,35L295,35ZM15,35L25,35L25,45L15,45ZM35,35L65,35L65,45L35,45ZM75,35L85,35L85,45L75,45ZM95,35L115,35L115,45L95,45ZM135,35L145,35L145,45L135,45ZM155,35L175,35L175,45L155,45ZM205,35L225,35L225,45L205,45ZM235,35L245,35L245,45L235,45ZM255,35L285,35L285,45L255,45ZM295,35L305,35L305,45L295,45ZM15,45L25,45L25,55L15,55ZM35,45L65,45L65,55L35,55ZM75,45L85,45L85,55L75,55ZM95,45L125,45L125,55L95,55ZM135,45L155,45L155,55L135,55ZM165,45L185,45L185,55L165,55ZM215,45L225,45L225,55L215,55ZM235,45L245,45L245,55L235,55ZM255,45L285,45L285,55L255,55ZM295,45L305,45L305,55L295,55ZM15,55L25,55L25,65L15,65ZM35,55L65,55L65,65L35,65ZM75,55L85,55L85,65L75,65ZM105,55L125,55L125,65L105,65ZM135,55L155,55L155,65L135,65ZM165,55L175,55L175,65L165,65ZM235,55L245,55L245,65L235,65ZM255,55L285,55L285,65L255,65ZM295,55L305,55L305,65L295,65ZM15,65L25,65L25,75L15,75ZM75,65L85,65L85,75L75,75ZM95,65L125,65L125,75L95,75ZM165,65L175,65L175,75L165,75ZM185,65L195,65L195,75L185,75ZM215,65L225,65L225,75L215,75ZM235,65L245,65L245,75L235,75ZM295,65L305,65L305,75L295,75ZM15,75L85,75L85,85L15,85ZM95,75L105,75L105,85L95,85ZM115,75L125,75L125,85L115,85ZM135,75L145,75L145,85L135,85ZM155,75L165,75L165,85L155,85ZM175,75L185,75L185,85L175,85ZM195,75L205,75L205,85L195,85ZM215,75L225,75L225,85L215,85ZM235,75L305,75L305,85L235,85ZM115,85L135,85L135,95L115,95ZM165,85L185,85L185,95L165,95ZM205,85L225,85L225,95L205,95ZM15,95L35,95L35,105L15,105ZM55,95L85,95L85,105L55,105ZM115,95L125,95L125,105L115,105ZM135,95L155,95L155,105L135,105ZM195,95L225,95L225,105L195,105ZM245,95L255,95L255,105L245,105ZM265,95L305,95L305,105L265,105ZM15,105L35,105L35,115L15,115ZM45,105L65,105L65,115L45,115ZM95,105L105,105L105,115L95,115ZM145,105L155,105L155,115L145,115ZM175,105L185,105L185,115L175,115ZM215,105L225,105L225,115L215,115ZM235,105L245,105L245,115L235,115ZM255,105L265,105L265,115L255,115ZM275,105L285,105L285,115L275,115ZM295,105L305,105L305,115L295,115ZM35,115L45,115L45,125L35,125ZM65,115L85,115L85,125L65,125ZM105,115L125,115L125,125L105,125ZM145,115L175,115L175,125L145,125ZM195,115L205,115L205,125L195,125ZM235,115L245,115L245,125L235,125ZM255,115L265,115L265,125L255,125ZM275,115L305,115L305,125L275,125ZM25,125L55,125L55,135L25,135ZM65,125L75,125L75,135L65,135ZM95,125L115,125L115,135L95,135ZM135,125L145,125L145,135L135,135ZM155,125L165,125L165,135L155,135ZM175,125L185,125L185,135L175,135ZM215,125L225,125L225,135L215,135ZM275,125L285,125L285,135L275,135ZM25,135L45,135L45,145L25,145ZM65,135L95,135L95,145L65,145ZM125,135L145,135L145,145L125,145ZM155,135L165,135L165,145L155,145ZM185,135L195,135L195,145L185,145ZM205,135L235,135L235,145L205,145ZM245,135L265,135L265,145L245,145ZM275,135L295,135L295,145L275,145ZM35,145L55,145L55,155L35,155ZM105,145L125,145L125,155L105,155ZM135,145L175,145L175,155L135,155ZM195,145L205,145L205,155L195,155ZM215,145L225,145L225,155L215,155ZM235,145L265,145L265,155L235,155ZM275,145L285,145L285,155L275,155ZM15,155L25,155L25,165L15,165ZM75,155L95,155L95,165L75,165ZM115,155L135,155L135,165L115,165ZM145,155L155,155L155,165L145,165ZM165,155L175,155L175,165L165,165ZM195,155L215,155L215,165L195,165ZM235,155L285,155L285,165L235,165ZM295,155L305,155L305,165L295,165ZM25,165L35,165L35,175L25,175ZM85,165L95,165L95,175L85,175ZM125,165L135,165L135,175L125,175ZM175,165L195,165L195,175L175,175ZM225,165L235,165L235,175L225,175ZM295,165L305,165L305,175L295,175ZM15,175L55,175L55,185L15,185ZM75,175L85,175L85,185L75,185ZM95,175L105,175L105,185L95,185ZM115,175L125,175L125,185L115,185ZM135,175L165,175L165,185L135,185ZM175,175L195,175L195,185L175,185ZM205,175L225,175L225,185L205,185ZM245,175L255,175L255,185L245,185ZM265,175L295,175L295,185L265,185ZM15,185L25,185L25,195L15,195ZM35,185L45,185L45,195L35,195ZM55,185L65,185L65,195L55,195ZM95,185L105,185L105,195L95,195ZM115,185L125,185L125,195L115,195ZM135,185L165,185L165,195L135,195ZM225,185L235,185L235,195L225,195ZM255,185L265,185L265,195L255,195ZM275,185L295,185L295,195L275,195ZM35,195L55,195L55,205L35,205ZM65,195L85,195L85,205L65,205ZM105,195L145,195L145,205L105,205ZM155,195L175,195L175,205L155,205ZM205,195L215,195L215,205L205,205ZM235,195L245,195L245,205L235,205ZM255,195L275,195L275,205L255,205ZM35,205L65,205L65,215L35,215ZM85,205L105,205L105,215L85,215ZM115,205L125,205L125,215L115,215ZM145,205L155,205L155,215L145,215ZM175,205L195,205L195,215L175,215ZM205,205L225,205L225,215L205,215ZM275,205L295,205L295,215L275,215ZM15,215L35,215L35,225L15,225ZM55,215L65,215L65,225L55,225ZM75,215L105,215L105,225L75,225ZM135,215L165,215L165,225L135,225ZM195,215L285,215L285,225L195,225ZM95,225L105,225L105,235L95,235ZM115,225L125,225L125,235L115,235ZM145,225L155,225L155,235L145,235ZM195,225L205,225L205,235L195,235ZM215,225L225,225L225,235L215,235ZM255,225L285,225L285,235L255,235ZM15,235L85,235L85,245L15,245ZM115,235L145,235L145,245L115,245ZM155,235L225,235L225,245L155,245ZM235,235L245,235L245,245L235,245ZM255,235L265,235L265,245L255,245ZM275,235L285,235L285,245L275,245ZM295,235L305,235L305,245L295,245ZM15,245L25,245L25,255L15,255ZM75,245L85,245L85,255L75,255ZM95,245L115,245L115,255L95,255ZM175,245L185,245L185,255L175,255ZM205,245L225,245L225,255L205,255ZM255,245L265,245L265,255L255,255ZM285,245L295,245L295,255L285,255ZM15,255L25,255L25,265L15,265ZM35,255L65,255L65,265L35,265ZM75,255L85,255L85,265L75,265ZM95,255L115,255L115,265L95,265ZM135,255L155,255L155,265L135,265ZM195,255L205,255L205,265L195,265ZM215,255L285,255L285,265L215,265ZM295,255L305,255L305,265L295,265ZM15,265L25,265L25,275L15,275ZM35,265L65,265L65,275L35,275ZM75,265L85,265L85,275L75,275ZM115,265L125,265L125,275L115,275ZM135,265L175,265L175,275L135,275ZM205,265L215,265L215,275L205,275ZM225,265L235,265L235,275L225,275ZM245,265L265,265L265,275L245,275ZM275,265L295,265L295,275L275,275ZM15,275L25,275L25,285L15,285ZM35,275L65,275L65,285L35,285ZM75,275L85,275L85,285L75,285ZM105,275L115,275L115,285L105,285ZM125,275L135,275L135,285L125,285ZM145,275L155,275L155,285L145,285ZM185,275L215,275L215,285L185,285ZM225,275L245,275L245,285L225,285ZM265,275L275,275L275,285L265,285ZM285,275L305,275L305,285L285,285ZM15,285L25,285L25,295L15,295ZM75,285L85,285L85,295L75,295ZM95,285L105,285L105,295L95,295ZM145,285L165,285L165,295L145,295ZM175,285L195,285L195,295L175,295ZM205,285L215,285L215,295L205,295ZM235,285L265,285L265,295L235,295ZM15,295L85,295L85,305L15,305ZM95,295L125,295L125,305L95,305ZM135,295L145,295L145,305L135,305ZM155,295L165,295L165,305L155,305ZM205,295L215,295L215,305L205,305ZM235,295L275,295L275,305L235,305ZM285,295L295,295L295,305L285,305Z"/></svg>
