<?xml version="1.0"?>
<svg xmlns="http://www.w3.org/2000/svg" xmlns:xlink="http://www.w3.org/1999/xlink" version="1.1" width="320px" height="320px" viewBox="0 0 320 320"><rect x="0" y="0" width="320" height="320" fill="#ffffff" fill-opacity="1"/><path fill="#1f294c" fill-opacity="1" d="M15,15L85,15L85,25L15,25ZM105,15L135,15L135,25L105,25ZM145,15L155,15L155,25L145,25ZM165,15L175,15L175,25L165,25ZM185,15L195,15L195,25L185,25ZM235,15L305,15L305,25L235,25ZM15,25L25,25L25,35L15,35ZM75,25L85,25L85,35L75,35ZM125,25L165,25L165,35L125,35ZM175,25L195,25L195,35L175,35ZM205,25L215,25L215,35L205,35ZM235,25L245,25L245,35L235,35ZM295,25L305,25L305,35L295,35ZM15,35L25,35L25,45L15,45ZM35,35L65,35L65,45L35,45ZM75,35L85,35L85,45L75,45ZM105,35L135,35L135,45L105,45ZM155,35L225,35L225,45L155,45ZM235,35L245,35L245,45L235,45ZM255,35L285,35L285,45L255,45ZM295,35L305,35L305,45L295,45ZM15,45L25,45L25,55L15,55ZM35,45L65,45L65,55L35,55ZM75,45L85,45L85,55L75,55ZM95,45L105,45L105,55L95,55ZM115,45L135,45L135,55L115,55ZM145,45L165,45L165,55L145,55ZM175,45L205,45L205,55L175,55ZM235,45L245,45L245,55L235,55ZM255,45L285,45L285,55L255,55ZM295,45L305,45L305,55L295,55ZM15,55L25,55L25,65L15,65ZM35,55L65,55L65,65L35,65ZM75,55L85,55L85,65L75,65ZM95,55L105,55L105,65L95,65ZM115,55L125,55L125,65L115,65ZM135,55L145,55L145,65L135,65ZM155,55L165,55L165,65L155,65ZM205,55L225,55L225,65L205,65ZM235,55L245,55L245,65L235,65ZM255,55L285,55L285,65L255,65ZM295,55L305,55L305,65L295,65ZM15,65L25,65L25,75L15,75ZM75,65L85,65L85,75L75,75ZM105,65L125,65L125,75L105,75ZM145,65L175,65L175,75L145,75ZM185,65L195,65L195,75L185,75ZM205,65L215,65L215,75L205,75ZM235,65L245,65L245,75L235,75ZM295,65L305,65L305,75L295,75ZM15,75L85,75L85,85L15,85ZM95,75L105,75L105,85L95,85ZM115,75L125,75L125,85L115,85ZM135,75L145,75L145,85L135,85ZM155,75L165,75L165,85L155,85ZM175,75L185,75L185,85L175,85ZM195,75L205,75L205,85L195,85ZM215,75L225,75L225,85L215,85ZM235,75L305,75L305,85L235,85ZM105,85L115,85L115,95L105,95ZM135,85L145,85L145,95L135,95ZM185,85L225,85L225,95L185,95ZM15,95L35,95L35,105L15,105ZM65,95L95,95L95,105L65,105ZM105,95L125,95L125,105L105,105ZM135,95L145,95L145,105L135,105ZM155,95L175,95L175,105L155,105ZM195,95L205,95L205,105L195,105ZM255,95L275,95L275,105L255,105ZM25,105L35,105L35,115L25,115ZM55,105L75,105L75,115L55,115ZM115,105L125,105L125,115L115,115ZM165,105L175,105L175,115L165,115ZM205,105L225,105L225,115L205,115ZM255,105L285,105L285,115L255,115ZM15,115L25,115L25,125L15,125ZM35,115L45,115L45,125L35,125ZM65,115L95,115L95,125L65,125ZM105,115L115,115L115,125L105,125ZM125,115L195,115L195,125L125,125ZM245,115L255,115L255,125L245,125ZM275,115L295,115L295,125L275,125ZM15,125L45,125L45,135L15,135ZM55,125L75,125L75,135L55,135ZM95,125L105,125L105,135L95,135ZM115,125L135,125L135,135L115,135ZM155,125L175,125L175,135L155,135ZM185,125L205,125L205,135L185,135ZM215,125L265,125L265,135L215,135ZM275,125L305,125L305,135L275,135ZM25,135L35,135L35,145L25,145ZM45,135L55,135L55,145L45,145ZM75,135L85,135L85,145L75,145ZM105,135L125,135L125,145L105,145ZM135,135L145,135L145,145L135,145ZM155,135L185,135L185,145L155,145ZM205,135L225,135L225,145L205,145ZM235,135L245,135L245,145L235,145ZM255,135L265,135L265,145L255,145ZM275,135L285,135L285,145L275,145ZM295,135L305,135L305,145L295,145ZM55,145L65,145L65,155L55,155ZM85,145L125,145L125,155L85,155ZM135,145L145,145L145,155L135,155ZM165,145L175,145L175,155L165,155ZM195,145L215,145L215,155L195,155ZM235,145L275,145L275,155L235,155ZM15,155L35,155L35,165L15,165ZM45,155L55,155L55,165L45,165ZM75,155L95,155L95,165L75,165ZM135,155L155,155L155,165L135,165ZM165,155L195,155L195,165L165,165ZM205,155L215,155L215,165L205,165ZM265,155L285,155L285,165L265,165ZM25,165L35,165L35,175L25,175ZM55,165L75,165L75,175L55,175ZM85,165L95,165L95,175L85,175ZM105,165L115,165L115,175L105,175ZM135,165L145,165L145,175L135,175ZM155,165L185,165L185,175L155,175ZM195,165L205,165L205,175L195,175ZM215,165L225,165L225,175L215,175ZM245,165L265,165L265,175L245,175ZM275,165L305,165L305,175L275,175ZM25,175L35,175L35,185L25,185ZM45,175L85,175L85,185L45,185ZM95,175L115,175L115,185L95,185ZM135,175L145,175L145,185L135,185ZM165,175L195,175L195,185L165,185ZM225,175L235,175L235,185L225,185ZM245,175L255,175L255,185L245,185ZM15,185L25,185L25,195L15,195ZM45,185L65,185L65,195L45,195ZM85,185L105,185L105,195L85,195ZM135,185L145,185L145,195L135,195ZM205,185L235,185L235,195L205,195ZM255,185L275,185L275,195L255,195ZM285,185L295,185L295,195L285,195ZM15,195L35,195L35,205L15,205ZM45,195L55,195L55,205L45,205ZM75,195L85,195L85,205L75,205ZM95,195L135,195L135,205L95,205ZM145,195L155,195L155,205L145,205ZM165,195L175,195L175,205L165,205ZM195,195L205,195L205,205L195,205ZM215,195L225,195L225,205L215,205ZM235,195L245,195L245,205L235,205ZM275,195L285,195L285,205L275,205ZM15,205L25,205L25,215L15,215ZM35,205L75,205L75,215L35,215ZM85,205L95,205L95,215L85,215ZM125,205L155,205L155,215L125,215ZM165,205L175,205L175,215L165,215ZM195,205L265,205L265,215L195,215ZM275,205L285,205L285,215L275,215ZM295,205L305,205L305,215L295,215ZM15,215L25,215L25,225L15,225ZM65,215L85,215L85,225L65,225ZM105,215L125,215L125,225L105,225ZM135,215L145,215L145,225L135,225ZM165,215L175,215L175,225L165,225ZM195,215L205,215L205,225L195,225ZM215,215L265,215L265,225L215,225ZM285,215L295,215L295,225L285,225ZM95,225L115,225L115,235L95,235ZM175,225L185,225L185,235L175,235ZM195,225L225,225L225,235L195,235ZM255,225L265,225L265,235L255,235ZM275,225L285,225L285,235L275,235ZM295,225L305,225L305,235L295,235ZM15,235L85,235L85,245L15,245ZM95,235L105,235L105,245L95,245ZM115,235L125,235L125,245L115,245ZM155,235L175,235L175,245L155,245ZM205,235L225,235L225,245L205,245ZM235,235L245,235L245,245L235,245ZM255,235L265,235L265,245L255,245ZM275,235L285,235L285,245L275,245ZM15,245L25,245L25,255L15,255ZM75,245L85,245L85,255L75,255ZM95,245L105,245L105,255L95,255ZM125,245L145,245L145,255L125,255ZM165,245L175,245L175,255L165,255ZM185,245L225,245L225,255L185,255ZM255,245L265,245L265,255L255,255ZM295,245L305,245L305,255L295,255ZM15,255L25,255L25,265L15,265ZM35,255L65,255L65,265L35,265ZM75,255L85,255L85,265L75,265ZM115,255L155,255L155,265L115,265ZM165,255L205,255L205,265L165,265ZM215,255L295,255L295,265L215,265ZM15,265L25,265L25,275L15,275ZM35,265L65,265L65,275L35,275ZM75,265L85,265L85,275L75,275ZM115,265L125,265L125,275L115,275ZM135,265L145,265L145,275L135,275ZM165,265L175,265L175,275L165,275ZM215,265L235,265L235,275L215,275ZM245,265L275,265L275,275L245,275ZM285,265L295,265L295,275L285,275ZM15,275L25,275L25,285L15,285ZM35,275L65,275L65,285L35,285ZM75,275L85,275L85,285L75,285ZM105,275L115,275L115,285L105,285ZM135,275L155,275L155,285L135,285ZM175,275L185,275L185,285L175,285ZM205,275L215,275L215,285L205,285ZM225,275L235,275L235,285L225,285ZM245,275L275,275L275,285L245,285ZM285,275L295,275L295,285L285,285ZM15,285L25,285L25,295L15,295ZM75,285L85,285L85,295L75,295ZM95,285L155,285L155,295L95,295ZM165,285L185,285L185,295L165,295ZM195,285L245,285L245,295L195,295ZM275,285L295,285L295,295L275,295ZM15,295L85,295L85,305L15,305ZM95,295L105,295L105,305L95,305ZM115,295L125,295L125,305L115,305ZM135,295L155,295L155,305L135,305ZM165,295L175,295L175,305L165,305ZM215,295L265,295L265,305L215,305ZM275,295L285,295L285,305L275,305Z"/></svg>
