<?xml version="1.0"?>
<svg xmlns="http://www.w3.org/2000/svg" xmlns:xlink="http://www.w3.org/1999/xlink" version="1.1" width="320px" height="320px" viewBox="0 0 320 320"><rect x="0" y="0" width="320" height="320" fill="#ffffff" fill-opacity="1"/><path fill="#1f294c" fill-opacity="1" d="M15,15L85,15L85,25L15,25ZM95,15L135,15L135,25L95,25ZM145,15L155,15L155,25L145,25ZM165,15L175,15L175,25L165,25ZM185,15L195,15L195,25L185,25ZM235,15L305,15L305,25L235,25ZM15,25L25,25L25,35L15,35ZM75,25L85,25L85,35L75,35ZM125,25L145,25L145,35L125,35ZM175,25L195,25L195,35L175,35ZM215,25L225,25L225,35L215,35ZM235,25L245,25L245,35L235,35ZM295,25L305,25L305,35L295,35ZM15,35L25,35L25,45L15,45ZM35,35L65,35L65,45L35,45ZM75,35L85,35L85,45L75,45ZM105,35L115,35L115,45L105,45ZM125,35L135,35L135,45L125,45ZM145,35L175,35L175,45L145,45ZM185,35L205,35L205,45L185,45ZM215,35L225,35L225,45L215,45ZM235,35L245,35L245,45L235,45ZM255,35L285,35L285,45L255,45ZM295,35L305,35L305,45L295,45ZM15,45L25,45L25,55L15,55ZM35,45L65,45L65,55L35,55ZM75,45L85,45L85,55L75,55ZM115,45L135,45L135,55L115,55ZM145,45L165,45L165,55L145,55ZM175,45L205,45L205,55L175,55ZM235,45L245,45L245,55L235,55ZM255,45L285,45L285,55L255,55ZM295,45L305,45L305,55L295,55ZM15,55L25,55L25,65L15,65ZM35,55L65,55L65,65L35,65ZM75,55L85,55L85,65L75,65ZM115,55L145,55L145,65L115,65ZM185,55L195,55L195,65L185,65ZM205,55L215,55L215,65L205,65ZM235,55L245,55L245,65L235,65ZM255,55L285,55L285,65L255,65ZM295,55L305,55L305,65L295,65ZM15,65L25,65L25,75L15,75ZM75,65L85,65L85,75L75,75ZM105,65L115,65L115,75L105,75ZM125,65L135,65L135,75L125,75ZM145,65L185,65L185,75L145,75ZM205,65L215,65L215,75L205,75ZM235,65L245,65L245,75L235,75ZM295,65L305,65L305,75L295,75ZM15,75L85,75L85,85L15,85ZM95,75L105,75L105,85L95,85ZM115,75L125,75L125,85L115,85ZM135,75L145,75L145,85L135,85ZM155,75L165,75L165,85L155,85ZM175,75L185,75L185,85L175,85ZM195,75L205,75L205,85L195,85ZM215,75L225,75L225,85L215,85ZM235,75L305,75L305,85L235,85ZM95,85L115,85L115,95L95,95ZM135,85L165,85L165,95L135,95ZM185,85L205,85L205,95L185,95ZM15,95L35,95L35,105L15,105ZM45,95L65,95L65,105L45,105ZM75,95L85,95L85,105L75,105ZM105,95L115,95L115,105L105,105ZM135,95L175,95L175,105L135,105ZM195,95L215,95L215,105L195,105ZM235,95L245,95L245,105L235,105ZM295,95L305,95L305,105L295,105ZM45,105L75,105L75,115L45,115ZM95,105L105,105L105,115L95,115ZM115,105L125,105L125,115L115,115ZM175,105L185,105L185,115L175,115ZM205,105L225,105L225,115L205,115ZM255,105L285,105L285,115L255,115ZM15,115L25,115L25,125L15,125ZM35,115L55,115L55,125L35,125ZM75,115L95,115L95,125L75,125ZM105,115L115,115L115,125L105,125ZM135,115L155,115L155,125L135,125ZM165,115L185,115L185,125L165,125ZM215,115L225,115L225,125L215,125ZM285,115L295,115L295,125L285,125ZM35,125L45,125L45,135L35,135ZM55,125L75,125L75,135L55,135ZM85,125L95,125L95,135L85,135ZM155,125L185,125L185,135L155,135ZM195,125L205,125L205,135L195,135ZM215,125L235,125L235,135L215,135ZM255,125L265,125L265,135L255,135ZM275,125L295,125L295,135L275,135ZM15,135L45,135L45,145L15,145ZM55,135L65,135L65,145L55,145ZM75,135L95,135L95,145L75,145ZM105,135L125,135L125,145L105,145ZM135,135L145,135L145,145L135,145ZM155,135L185,135L185,145L155,145ZM205,135L225,135L225,145L205,145ZM235,135L245,135L245,145L235,145ZM255,135L265,135L265,145L255,145ZM275,135L285,135L285,145L275,145ZM295,135L305,135L305,145L295,145ZM25,145L35,145L35,155L25,155ZM65,145L75,145L75,155L65,155ZM95,145L105,145L105,155L95,155ZM115,145L125,145L125,155L115,155ZM135,145L165,145L165,155L135,155ZM175,145L185,145L185,155L175,155ZM195,145L205,145L205,155L195,155ZM215,145L225,145L225,155L215,155ZM235,145L265,145L265,155L235,155ZM275,145L285,145L285,155L275,155ZM65,155L105,155L105,165L65,165ZM135,155L145,155L145,165L135,165ZM165,155L175,155L175,165L165,165ZM185,155L195,155L195,165L185,165ZM235,155L245,155L245,165L235,165ZM275,155L285,155L285,165L275,165ZM295,155L305,155L305,165L295,165ZM35,165L75,165L75,175L35,175ZM85,165L105,165L105,175L85,175ZM135,165L145,165L145,175L135,175ZM155,165L185,165L185,175L155,175ZM195,165L205,165L205,175L195,175ZM215,165L225,165L225,175L215,175ZM245,165L265,165L265,175L245,175ZM275,165L305,165L305,175L275,175ZM35,175L55,175L55,185L35,185ZM75,175L105,175L105,185L75,185ZM125,175L135,175L135,185L125,185ZM155,175L185,175L185,185L155,185ZM215,175L235,175L235,185L215,185ZM275,175L285,175L285,185L275,185ZM15,185L25,185L25,195L15,195ZM65,185L75,185L75,195L65,195ZM95,185L105,185L105,195L95,195ZM125,185L145,185L145,195L125,195ZM175,185L195,185L195,195L175,195ZM205,185L275,185L275,195L205,195ZM285,185L305,185L305,195L285,195ZM15,195L55,195L55,205L15,205ZM65,195L95,195L95,205L65,205ZM105,195L115,195L115,205L105,205ZM125,195L135,195L135,205L125,205ZM145,195L155,195L155,205L145,205ZM165,195L175,195L175,205L165,205ZM195,195L205,195L205,205L195,205ZM215,195L225,195L225,205L215,205ZM235,195L245,195L245,205L235,205ZM275,195L285,195L285,205L275,205ZM15,205L45,205L45,215L15,215ZM55,205L65,205L65,215L55,215ZM95,205L105,205L105,215L95,215ZM125,205L145,205L145,215L125,215ZM155,205L175,205L175,215L155,215ZM195,205L205,205L205,215L195,215ZM225,205L275,205L275,215L225,215ZM295,205L305,205L305,215L295,215ZM15,215L45,215L45,225L15,225ZM55,215L65,215L65,225L55,225ZM75,215L85,215L85,225L75,225ZM135,215L155,215L155,225L135,225ZM165,215L185,215L185,225L165,225ZM195,215L275,215L275,225L195,225ZM285,215L305,215L305,225L285,225ZM95,225L105,225L105,235L95,235ZM115,225L125,225L125,235L115,235ZM175,225L185,225L185,235L175,235ZM195,225L225,225L225,235L195,235ZM255,225L265,225L265,235L255,235ZM275,225L285,225L285,235L275,235ZM295,225L305,225L305,235L295,235ZM15,235L85,235L85,245L15,245ZM105,235L135,235L135,245L105,245ZM165,235L175,235L175,245L165,245ZM185,235L195,235L195,245L185,245ZM205,235L225,235L225,245L205,245ZM235,235L245,235L245,245L235,245ZM255,235L265,235L265,245L255,245ZM15,245L25,245L25,255L15,255ZM75,245L85,245L85,255L75,255ZM105,245L115,245L115,255L105,255ZM135,245L145,245L145,255L135,255ZM165,245L185,245L185,255L165,255ZM195,245L225,245L225,255L195,255ZM255,245L265,245L265,255L255,255ZM15,255L25,255L25,265L15,265ZM35,255L65,255L65,265L35,265ZM75,255L85,255L85,265L75,265ZM95,255L105,255L105,265L95,265ZM115,255L155,255L155,265L115,265ZM165,255L205,255L205,265L165,265ZM215,255L295,255L295,265L215,265ZM15,265L25,265L25,275L15,275ZM35,265L65,265L65,275L35,275ZM75,265L85,265L85,275L75,275ZM95,265L105,265L105,275L95,275ZM115,265L125,265L125,275L115,275ZM135,265L175,265L175,275L135,275ZM205,265L215,265L215,275L205,275ZM225,265L235,265L235,275L225,275ZM245,265L265,265L265,275L245,275ZM275,265L295,265L295,275L275,275ZM15,275L25,275L25,285L15,285ZM35,275L65,275L65,285L35,285ZM75,275L85,275L85,285L75,285ZM105,275L125,275L125,285L105,285ZM135,275L145,275L145,285L135,285ZM225,275L265,275L265,285L225,285ZM285,275L305,275L305,285L285,285ZM15,285L25,285L25,295L15,295ZM75,285L85,285L85,295L75,295ZM95,285L155,285L155,295L95,295ZM165,285L185,285L185,295L165,295ZM195,285L245,285L245,295L195,295ZM275,285L295,285L295,295L275,295ZM15,295L85,295L85,305L15,305ZM95,295L175,295L175,305L95,305ZM185,295L195,295L195,305L185,305ZM225,295L245,295L245,305L225,305ZM255,295L265,295L265,305L255,305Z"/></svg>
