<?xml version="1.0"?>
<svg xmlns="http://www.w3.org/2000/svg" xmlns:xlink="http://www.w3.org/1999/xlink" version="1.1" width="320px" height="320px" viewBox="0 0 320 320"><rect x="0" y="0" width="320" height="320" fill="#ffffff" fill-opacity="1"/><path fill="#1f294c" fill-opacity="1" d="M15,15L85,15L85,25L15,25ZM95,15L115,15L115,25L95,25ZM155,15L185,15L185,25L155,25ZM205,15L225,15L225,25L205,25ZM235,15L305,15L305,25L235,25ZM15,25L25,25L25,35L15,35ZM75,25L85,25L85,35L75,35ZM145,25L155,25L155,35L145,35ZM175,25L185,25L185,35L175,35ZM195,25L225,25L225,35L195,35ZM235,25L245,25L245,35L235,35ZM295,25L305,25L305,35L295,35ZM15,35L25,35L25,45L15,45ZM35,35L65,35L65,45L35,45ZM75,35L85,35L85,45L75,45ZM95,35L105,35L105,45L95,45ZM125,35L165,35L165,45L125,45ZM185,35L195,35L195,45L185,45ZM215,35L225,35L225,45L215,45ZM235,35L245,35L245,45L235,45ZM255,35L285,35L285,45L255,45ZM295,35L305,35L305,45L295,45ZM15,45L25,45L25,55L15,55ZM35,45L65,45L65,55L35,55ZM75,45L85,45L85,55L75,55ZM95,45L115,45L115,55L95,55ZM125,45L135,45L135,55L125,55ZM145,45L155,45L155,55L145,55ZM165,45L175,45L175,55L165,55ZM185,45L205,45L205,55L185,55ZM215,45L225,45L225,55L215,55ZM235,45L245,45L245,55L235,55ZM255,45L285,45L285,55L255,55ZM295,45L305,45L305,55L295,55ZM15,55L25,55L25,65L15,65ZM35,55L65,55L65,65L35,65ZM75,55L85,55L85,65L75,65ZM95,55L135,55L135,65L95,65ZM165,55L175,55L175,65L165,65ZM185,55L215,55L215,65L185,65ZM235,55L245,55L245,65L235,65ZM255,55L285,55L285,65L255,65ZM295,55L305,55L305,65L295,65ZM15,65L25,65L25,75L15,75ZM75,65L85,65L85,75L75,75ZM105,65L115,65L115,75L105,75ZM135,65L145,65L145,75L135,75ZM155,65L205,65L205,75L155,75ZM235,65L245,65L245,75L235,75ZM295,65L305,65L305,75L295,75ZM15,75L85,75L85,85L15,85ZM95,75L105,75L105,85L95,85ZM115,75L125,75L125,85L115,85ZM135,75L145,75L145,85L135,85ZM155,75L165,75L165,85L155,85ZM175,75L185,75L185,85L175,85ZM195,75L205,75L205,85L195,85ZM215,75L225,75L225,85L215,85ZM235,75L305,75L305,85L235,85ZM105,85L115,85L115,95L105,95ZM125,85L135,85L135,95L125,95ZM155,85L165,85L165,95L155,95ZM205,85L215,85L215,95L205,95ZM15,95L55,95L55,105L15,105ZM75,95L85,95L85,105L75,105ZM95,95L105,95L105,105L95,105ZM145,95L165,95L165,105L145,105ZM175,95L185,95L185,105L175,105ZM205,95L215,95L215,105L205,105ZM225,95L235,95L235,105L225,105ZM255,95L285,95L285,105L255,105ZM295,95L305,95L305,105L295,105ZM15,105L25,105L25,115L15,115ZM35,105L65,105L65,115L35,115ZM85,105L115,105L115,115L85,115ZM155,105L165,105L165,115L155,115ZM205,105L215,105L215,115L205,115ZM225,105L245,105L245,115L225,115ZM255,105L275,105L275,115L255,115ZM285,105L305,105L305,115L285,115ZM15,115L85,115L85,125L15,125ZM95,115L105,115L105,125L95,125ZM145,115L155,115L155,125L145,125ZM175,115L185,115L185,125L175,125ZM195,115L205,115L205,125L195,125ZM215,115L235,115L235,125L215,125ZM255,115L265,115L265,125L255,125ZM25,125L45,125L45,135L25,135ZM65,125L75,125L75,135L65,135ZM125,125L195,125L195,135L125,135ZM205,125L235,125L235,135L205,135ZM245,125L255,125L255,135L245,135ZM265,125L295,125L295,135L265,135ZM25,135L35,135L35,145L25,145ZM45,135L55,135L55,145L45,145ZM75,135L95,135L95,145L75,145ZM105,135L115,135L115,145L105,145ZM125,135L155,135L155,145L125,145ZM165,135L195,135L195,145L165,145ZM245,135L275,135L275,145L245,145ZM55,145L75,145L75,155L55,155ZM85,145L105,145L105,155L85,155ZM115,145L135,145L135,155L115,155ZM155,145L175,145L175,155L155,155ZM185,145L195,145L195,155L185,155ZM205,145L225,145L225,155L205,155ZM235,145L245,145L245,155L235,155ZM265,145L285,145L285,155L265,155ZM15,155L35,155L35,165L15,165ZM45,155L65,155L65,165L45,165ZM75,155L85,155L85,165L75,165ZM115,155L125,155L125,165L115,165ZM185,155L205,155L205,165L185,165ZM225,155L245,155L245,165L225,165ZM255,155L265,155L265,165L255,165ZM275,155L305,155L305,165L275,165ZM25,165L45,165L45,175L25,175ZM65,165L75,165L75,175L65,175ZM135,165L145,165L145,175L135,175ZM195,165L205,165L205,175L195,175ZM225,165L265,165L265,175L225,175ZM55,175L65,175L65,185L55,185ZM75,175L95,175L95,185L75,185ZM105,175L135,175L135,185L105,185ZM155,175L165,175L165,185L155,185ZM175,175L185,175L185,185L175,185ZM195,175L205,175L205,185L195,185ZM215,175L225,175L225,185L215,185ZM255,175L265,175L265,185L255,185ZM275,175L295,175L295,185L275,185ZM35,185L65,185L65,195L35,195ZM85,185L125,185L125,195L85,195ZM145,185L155,185L155,195L145,195ZM175,185L185,185L185,195L175,195ZM195,185L205,185L205,195L195,195ZM215,185L245,185L245,195L215,195ZM285,185L305,185L305,195L285,195ZM15,195L25,195L25,205L15,205ZM65,195L95,195L95,205L65,205ZM105,195L115,195L115,205L105,205ZM155,195L215,195L215,205L155,205ZM245,195L255,195L255,205L245,205ZM265,195L275,195L275,205L265,205ZM295,195L305,195L305,205L295,205ZM35,205L45,205L45,215L35,215ZM55,205L75,205L75,215L55,215ZM95,205L105,205L105,215L95,215ZM145,205L175,205L175,215L145,215ZM185,205L195,205L195,215L185,215ZM205,205L215,205L215,215L205,215ZM225,205L245,205L245,215L225,215ZM295,205L305,205L305,215L295,215ZM25,215L55,215L55,225L25,225ZM65,215L95,215L95,225L65,225ZM105,215L125,215L125,225L105,225ZM145,215L155,215L155,225L145,225ZM175,215L185,215L185,225L175,225ZM205,215L275,215L275,225L205,225ZM295,215L305,215L305,225L295,225ZM95,225L115,225L115,235L95,235ZM155,225L175,225L175,235L155,235ZM195,225L225,225L225,235L195,235ZM255,225L265,225L265,235L255,235ZM285,225L295,225L295,235L285,235ZM15,235L85,235L85,245L15,245ZM125,235L145,235L145,245L125,245ZM185,235L225,235L225,245L185,245ZM235,235L245,235L245,245L235,245ZM255,235L265,235L265,245L255,245ZM285,235L295,235L295,245L285,245ZM15,245L25,245L25,255L15,255ZM75,245L85,245L85,255L75,255ZM125,245L135,245L135,255L125,255ZM145,245L155,245L155,255L145,255ZM165,245L195,245L195,255L165,255ZM215,245L225,245L225,255L215,255ZM255,245L275,245L275,255L255,255ZM15,255L25,255L25,265L15,265ZM35,255L65,255L65,265L35,265ZM75,255L85,255L85,265L75,265ZM105,255L115,255L115,265L105,265ZM135,255L145,255L145,265L135,265ZM155,255L175,255L175,265L155,265ZM195,255L265,255L265,265L195,265ZM285,255L305,255L305,265L285,265ZM15,265L25,265L25,275L15,275ZM35,265L65,265L65,275L35,275ZM75,265L85,265L85,275L75,275ZM95,265L135,265L135,275L95,275ZM155,265L175,265L175,275L155,275ZM185,265L205,265L205,275L185,275ZM225,265L235,265L235,275L225,275ZM265,265L295,265L295,275L265,275ZM15,275L25,275L25,285L15,285ZM35,275L65,275L65,285L35,285ZM75,275L85,275L85,285L75,285ZM95,275L105,275L105,285L95,285ZM115,275L125,275L125,285L115,285ZM165,275L175,275L175,285L165,285ZM195,275L205,275L205,285L195,285ZM235,275L255,275L255,285L235,285ZM295,275L305,275L305,285L295,285ZM15,285L25,285L25,295L15,295ZM75,285L85,285L85,295L75,295ZM95,285L115,285L115,295L95,295ZM125,285L165,285L165,295L125,295ZM195,285L215,285L215,295L195,295ZM295,285L305,285L305,295L295,295ZM15,295L85,295L85,305L15,305ZM95,295L115,295L115,305L95,305ZM125,295L135,295L135,305L125,305ZM145,295L165,295L165,305L145,305ZM185,295L205,295L205,305L185,305ZM235,295L245,295L245,305L235,305ZM285,295L295,295L295,305L285,305Z"/></svg>
